<svg xmlns="http://www.w3.org/2000/svg" xmlns:xlink="http://www.w3.org/1999/xlink" width="285" height="285" viewBox="0 0 285 285">
  <defs>
    <clipPath id="clip-Artboard_1">
      <rect width="285" height="285"/>
    </clipPath>
  </defs>
  <g id="Artboard_1" data-name="Artboard – 1" clip-path="url(#clip-Artboard_1)">
    <rect width="285" height="285" fill="#fff"/>
    <g id="Group_298" data-name="Group 298" transform="translate(-229.096 -2476.477)">
      <g id="blob-shape-3" transform="translate(229.096 2497.596)">
        <path id="Path_2" data-name="Path 2" d="M8.775-95.613C8.775-43.419-43.419,8.775-95.613,8.775S-200-43.419-200-95.613-147.806-200-95.613-200,8.775-147.806,8.775-95.613Z" transform="translate(200 200)" fill="#ededed"/>
      </g>
      <g id="free-delivery" transform="translate(245.327 2512.923)">
        <g id="Group_238" data-name="Group 238" transform="translate(0 0)">
          <g id="Group_237" data-name="Group 237">
            <path id="Path_448" data-name="Path 448" d="M249.955,168.909l-6.96-27.84a4.209,4.209,0,0,0,3.331-4.115v-4.489A17.7,17.7,0,0,0,228.65,114.79h-31.7v-9.258a8.707,8.707,0,0,0-8.7-8.7H129.3l35.822-14.329A4.208,4.208,0,0,0,162,74.691L132.669,86.423c8.938-5.734,17.78-12.046,21.147-16.459a19.6,19.6,0,1,0-31.168-23.77c-4.789,6.279-11.107,23.923-15.2,36.356-4.089-12.432-10.407-30.077-15.2-36.356a19.6,19.6,0,1,0-31.168,23.77C64.454,74.377,73.3,80.688,82.235,86.423L52.9,74.691a4.208,4.208,0,0,0-3.126,7.815L85.6,96.834H26.652a8.707,8.707,0,0,0-8.7,8.7v76.311a4.208,4.208,0,1,0,8.417,0V105.532a.28.28,0,0,1,.28-.28h161.6a.28.28,0,0,1,.28.28v76.312a4.208,4.208,0,1,0,8.417,0v-4.771h49.668a13.769,13.769,0,0,1,13.075,9.539H246.606a4.209,4.209,0,0,0-4.208,4.208V199.8a13.2,13.2,0,0,0,13.186,13.186h4.77V231.5h-11a26.644,26.644,0,0,0-50.375,0h-2.026V199.8a4.208,4.208,0,0,0-8.417,0v31.7H101.217a26.644,26.644,0,0,0-50.375,0H26.652a.28.28,0,0,1-.28-.28v-9.258H44.608a4.208,4.208,0,0,0,0-8.417H4.208a4.208,4.208,0,0,0,0,8.417H17.956v9.258a8.707,8.707,0,0,0,8.7,8.7H49.385c0,.093-.007.186-.007.28a26.652,26.652,0,0,0,53.3,0c0-.095-.006-.187-.007-.28h94.841c0,.093-.007.186-.007.28a26.652,26.652,0,0,0,53.3,0c0-.095-.006-.187-.007-.28h13.755a4.209,4.209,0,0,0,4.208-4.208V190.82A22.2,22.2,0,0,0,249.955,168.909ZM90.762,81.832C74.162,71.516,69.238,66.771,67.78,64.859A11.182,11.182,0,0,1,85.564,51.3c4.071,5.338,10.446,23.3,14.655,36.248C97.379,85.873,94.113,83.916,90.762,81.832Zm23.923,5.713C118.894,74.6,125.27,56.635,129.34,51.3a11.182,11.182,0,0,1,17.783,13.562c-1.458,1.911-6.382,6.658-22.981,16.973C120.791,83.915,117.526,85.873,114.685,87.545Zm82.263,35.661h31.7a9.269,9.269,0,0,1,9.258,9.258v.28H196.948Zm0,45.45V141.161h37.394l6.874,27.494ZM76.03,258.433A18.236,18.236,0,1,1,94.266,240.2,18.257,18.257,0,0,1,76.03,258.433Zm148.132,0A18.236,18.236,0,1,1,242.4,240.2,18.257,18.257,0,0,1,224.162,258.433Zm36.192-53.866h-4.77a4.775,4.775,0,0,1-4.77-4.77v-4.77h9.539v9.539Z" transform="translate(0 -38.486)"/>
          </g>
        </g>
        <g id="Group_240" data-name="Group 240" transform="translate(67.333 193.013)">
          <g id="Group_239" data-name="Group 239">
            <path id="Path_449" data-name="Path 449" d="M136.964,406.172a8.7,8.7,0,1,0,8.7,8.7A8.707,8.707,0,0,0,136.964,406.172Z" transform="translate(-128.267 -406.172)"/>
          </g>
        </g>
        <g id="Group_242" data-name="Group 242" transform="translate(215.465 193.013)">
          <g id="Group_241" data-name="Group 241">
            <path id="Path_450" data-name="Path 450" d="M419.152,406.172a8.7,8.7,0,1,0,8.7,8.7A8.707,8.707,0,0,0,419.152,406.172Z" transform="translate(-410.455 -406.172)"/>
          </g>
        </g>
        <g id="Group_244" data-name="Group 244" transform="translate(107.732 175.058)">
          <g id="Group_243" data-name="Group 243">
            <path id="Path_451" data-name="Path 451" d="M272.279,371.967H209.435a4.208,4.208,0,1,0,0,8.417h62.844a4.208,4.208,0,1,0,0-8.417Z" transform="translate(-205.227 -371.967)"/>
          </g>
        </g>
        <g id="Group_246" data-name="Group 246" transform="translate(8.978 157.102)">
          <g id="Group_245" data-name="Group 245">
            <path id="Path_452" data-name="Path 452" d="M75.177,337.763H21.31a4.208,4.208,0,1,0,0,8.417H75.177a4.208,4.208,0,1,0,0-8.417Z" transform="translate(-17.102 -337.763)"/>
          </g>
        </g>
        <g id="Group_248" data-name="Group 248" transform="translate(44.888 94.258)">
          <g id="Group_247" data-name="Group 247">
            <path id="Path_453" data-name="Path 453" d="M107.675,218.046H89.719a4.209,4.209,0,0,0-4.208,4.208v35.911a4.208,4.208,0,1,0,8.417,0V244.418h9.258a4.208,4.208,0,0,0,0-8.417H93.928v-9.538h13.747a4.208,4.208,0,1,0,0-8.417Z" transform="translate(-85.511 -218.046)"/>
          </g>
        </g>
        <g id="Group_250" data-name="Group 250" transform="translate(76.31 94.258)">
          <g id="Group_249" data-name="Group 249" transform="translate(0 0)">
            <path id="Path_454" data-name="Path 454" d="M169.229,246.391a15.424,15.424,0,0,0-8.429-28.345H149.577a4.209,4.209,0,0,0-4.208,4.208v35.911a4.208,4.208,0,1,0,8.417,0v-9.258h7.006L168.52,260.5a4.208,4.208,0,1,0,7-4.668Zm-8.429-5.9h-7.014V226.463H160.8a7.014,7.014,0,0,1,0,14.028Z" transform="translate(-145.369 -218.046)"/>
          </g>
        </g>
        <g id="Group_252" data-name="Group 252" transform="translate(112.221 94.258)">
          <g id="Group_251" data-name="Group 251">
            <path id="Path_455" data-name="Path 455" d="M235.942,253.957H222.195V244.4c.093.006.186.014.28.014h8.978a4.208,4.208,0,1,0,0-8.417h-8.978c-.1,0-.187.008-.28.014v-9.553h13.747a4.208,4.208,0,0,0,0-8.417H217.986a4.209,4.209,0,0,0-4.208,4.208v35.911a4.209,4.209,0,0,0,4.208,4.208h17.956a4.208,4.208,0,1,0,0-8.416Z" transform="translate(-213.778 -218.046)"/>
          </g>
        </g>
        <g id="Group_254" data-name="Group 254" transform="translate(143.643 94.258)">
          <g id="Group_253" data-name="Group 253">
            <path id="Path_456" data-name="Path 456" d="M295.8,253.957H282.053v-9.539h4.77a4.208,4.208,0,0,0,0-8.417h-4.77v-9.539H295.8a4.208,4.208,0,0,0,0-8.417H277.844a4.209,4.209,0,0,0-4.208,4.208v35.911a4.209,4.209,0,0,0,4.208,4.208H295.8a4.208,4.208,0,1,0,0-8.416Z" transform="translate(-273.636 -218.046)"/>
          </g>
        </g>
      </g>
    </g>
  </g>
</svg>
