<svg xmlns="http://www.w3.org/2000/svg" xmlns:xlink="http://www.w3.org/1999/xlink" width="285" height="285" viewBox="0 0 285 285">
  <defs>
    <clipPath id="clip-Artboard_1">
      <rect width="285" height="285"/>
    </clipPath>
  </defs>
  <g id="Artboard_1" data-name="Artboard – 1" clip-path="url(#clip-Artboard_1)">
    <rect width="285" height="285" fill="#fff"/>
    <g id="Group_300" data-name="Group 300" transform="translate(-1073.018 -2577)">
      <g id="Group_274" data-name="Group 274" transform="translate(1106 2581)">
        <g id="blob-shape-3" transform="translate(23.323 50.964)">
          <path id="Path_2" data-name="Path 2" d="M-3.288-101.644c0,49.178-49.178,98.356-98.356,98.356S-200-52.466-200-101.644-150.822-200-101.644-200-3.288-150.822-3.288-101.644Z" transform="translate(200 200)" fill="#ededed"/>
        </g>
        <g id="discount" transform="translate(0)">
          <path id="Path_446" data-name="Path 446" d="M211.137,272.991a18.41,18.41,0,0,0-21.306-5.808c-4.472-11.295-17.033-12.633-24.68-8.021l-48.724,29.393-10.842-1.688a31.441,31.441,0,0,0,14.984-16.6,13.423,13.423,0,0,0-16.678-17.734,128.584,128.584,0,0,1-26.973,5.643,47.517,47.517,0,0,0-35.271,22.056L3.464,337.4A19.16,19.16,0,0,0,9.971,365.2l45.156,24.671a24.282,24.282,0,0,0,31.619-7.443l14.928-21.436c5.81-10.016,1.832-17.5,1.294-18.564,0,0,47.377-11.89,47.682-12.059l54.8-30.073C219.377,292.3,214.426,277.241,211.137,272.991Zm-41.787-6.867c4.025-2.427,10.192-2.533,13.152,4.606l-33.156,16.347a35.707,35.707,0,0,1-20.385,3.413Zm32.193,27.043L147.2,322.99,96.9,335.564c-.839-.561-39.581-18.1-39.581-18.1a4.065,4.065,0,1,0-3.337,7.413L90.9,341.5A10.009,10.009,0,0,1,95,356.345L80.074,377.781a16.166,16.166,0,0,1-21.048,4.955L13.87,358.064c-6.763-4.457-7.041-11.1-3.746-16l19.657-28.072,7.562,3.4a4.066,4.066,0,0,0,3.337-7.416l-6.365-2.865,14.211-22.545a39.43,39.43,0,0,1,29.268-18.306,136.622,136.622,0,0,0,28.688-6.02,5.093,5.093,0,0,1,5.442,1.37,5.222,5.222,0,0,1,1.091,5.649,23.587,23.587,0,0,1-11.634,12.627,7.794,7.794,0,0,0-4.241,8.3,7.935,7.935,0,0,0,6.634,6.624c4.593.714,20.263,3.153,22.912,3.566a43.8,43.8,0,0,0,26.257-4.013l39.172-19.314a10.244,10.244,0,0,1,12.593,2.912C206.536,280.333,209.617,288.394,201.543,293.167Zm0,0" transform="translate(0 -115.315)"/>
          <path id="Path_447" data-name="Path 447" d="M122.944,96.01l36.627,30.748a24.384,24.384,0,0,0,31.4,0l10.27-8.62a4.066,4.066,0,1,0-5.228-6.228l-10.27,8.623a16.269,16.269,0,0,1-20.946,0L128.172,89.783a3.428,3.428,0,0,1,2.2-6.054h9.611a4.064,4.064,0,0,0,4.066-4.066V17.4a9.283,9.283,0,0,1,9.273-9.273h43.892a9.282,9.282,0,0,1,9.273,9.273V79.663a4.065,4.065,0,0,0,4.066,4.066h9.614a3.429,3.429,0,0,1,2.2,6.054l-12.667,10.634a4.066,4.066,0,1,0,5.228,6.228L227.6,96.01A11.559,11.559,0,0,0,220.17,75.6h-5.548V17.4A17.424,17.424,0,0,0,197.218,0H153.326a17.423,17.423,0,0,0-17.4,17.4V75.6h-5.548a11.559,11.559,0,0,0-7.43,20.413Zm0,0" transform="translate(-54.4)"/>
        </g>
      </g>
      <path id="Path_463" data-name="Path 463" d="M197.6,186.568a2.528,2.528,0,0,0-.91-.031,6.039,6.039,0,0,1-5.341-5.988,2.656,2.656,0,0,0-5.312,0,11.363,11.363,0,0,0,8.355,10.941v2.656a2.656,2.656,0,0,0,5.312,0v-2.5a11.342,11.342,0,0,0-2.324-22.443,6.031,6.031,0,1,1,6.031-6.031,2.656,2.656,0,0,0,5.312,0,11.363,11.363,0,0,0-9.019-11.1v-2.417a2.656,2.656,0,1,0-5.312,0v2.58a11.341,11.341,0,0,0,2.988,22.283,6.027,6.027,0,0,1,.22,12.05Zm0,0" transform="translate(1031.325 2462.49)"/>
    </g>
  </g>
</svg>
