<svg xmlns="http://www.w3.org/2000/svg" xmlns:xlink="http://www.w3.org/1999/xlink" width="285" height="285" viewBox="0 0 285 285">
  <defs>
    <clipPath id="clip-Artboard_1">
      <rect width="285" height="285"/>
    </clipPath>
  </defs>
  <g id="Artboard_1" data-name="Artboard – 1" clip-path="url(#clip-Artboard_1)">
    <rect width="285" height="285" fill="#fff"/>
    <g id="Group_301" data-name="Group 301" transform="translate(-1538 -2475.367)">
      <g id="blob-shape-3" transform="translate(1580.682 2496.5)">
        <path id="Path_2" data-name="Path 2" d="M42.318-78.841c0,60.579-60.579,121.159-121.159,121.159S-200-18.262-200-78.841-139.421-200-78.841-200,42.318-139.421,42.318-78.841Z" transform="translate(200 200)" fill="#ededed"/>
      </g>
      <g id="recommended" transform="translate(1538 2497.496)">
        <g id="Group_256" data-name="Group 256" transform="translate(60.162 54.095)">
          <g id="Group_255" data-name="Group 255">
            <path id="Path_457" data-name="Path 457" d="M252.121,167.273a13.8,13.8,0,0,0-13.787-13.787H213c6.156-6.92,10.18-14.8,10.957-21.868a15.2,15.2,0,0,0-3.661-11.758,13.216,13.216,0,0,0-9.859-4.527H210.3A13.745,13.745,0,0,0,196.519,129c-.134.8-1.545,3.569-5,6.855a39.163,39.163,0,0,1-14.927,8.731,18.289,18.289,0,0,0-7.682,5.026,49.712,49.712,0,0,1-5.182,4.775,7.717,7.717,0,0,0-3.625-.9H136.038a7.78,7.78,0,0,0-7.771,7.771v64.173a7.78,7.78,0,0,0,7.771,7.771H160.1a7.775,7.775,0,0,0,6.8-4.011h61.408a11.778,11.778,0,0,0,10.144-17.769,11.773,11.773,0,0,0,4.011-16.044,11.771,11.771,0,0,0,3.6-16.691A13.786,13.786,0,0,0,252.121,167.273Zm-13.787,6.267h-2.006a3.76,3.76,0,1,0,0,7.521,4.262,4.262,0,1,1,0,8.523h-4.011a3.76,3.76,0,0,0,0,7.521,4.262,4.262,0,0,1,0,8.523h-4.011a3.76,3.76,0,0,0,0,7.521,4.262,4.262,0,1,1,0,8.523H167.874V185.324a3.76,3.76,0,1,0-7.521,0v40.108a.25.25,0,0,1-.25.25H136.038a.25.25,0,0,1-.25-.25V161.257a.25.25,0,0,1,.25-.25H160.1a.25.25,0,0,1,.25.25v8.022a3.76,3.76,0,1,0,7.521,0v-8.022c0-.182-.015-.361-.028-.54a57.09,57.09,0,0,0,6.545-5.954,10.867,10.867,0,0,1,4.522-3.021,46.454,46.454,0,0,0,18.245-10.875c4.309-4.23,6.88-8.64,6.88-11.8a6.152,6.152,0,0,1,1.832-4.4,6.305,6.305,0,0,1,4.492-1.814,5.729,5.729,0,0,1,4.3,2,7.781,7.781,0,0,1,1.809,5.944c-.821,7.471-6.8,16.707-15.222,23.527a3.76,3.76,0,0,0,2.366,6.682h34.714a6.267,6.267,0,0,1,0,12.534Z" transform="translate(-128.267 -115.333)"/>
          </g>
        </g>
        <g id="Group_258" data-name="Group 258" transform="translate(76.186 148.36)">
          <g id="Group_257" data-name="Group 257">
            <path id="Path_458" data-name="Path 458" d="M166.21,316.306a3.78,3.78,0,1,0,3.78,3.78A3.794,3.794,0,0,0,166.21,316.306Z" transform="translate(-162.43 -316.306)"/>
          </g>
        </g>
        <g id="Group_260" data-name="Group 260" transform="translate(0 0)">
          <g id="Group_259" data-name="Group 259">
            <path id="Path_459" data-name="Path 459" d="M233.445,120.074l6.46-17.093a3.759,3.759,0,0,0-.583-3.681L227.9,85.04l.861-18.253a3.76,3.76,0,0,0-1.691-3.32L211.793,53.435l-4.821-17.626a3.76,3.76,0,0,0-2.635-2.635l-17.626-4.821L176.68,13.082a3.765,3.765,0,0,0-3.32-1.691l-18.253.861L140.847.826a3.761,3.761,0,0,0-3.681-.583L120.073,6.7,102.981.244A3.758,3.758,0,0,0,99.3.827L85.04,12.252l-18.253-.861a3.753,3.753,0,0,0-3.32,1.691L53.436,28.355,35.81,33.176a3.76,3.76,0,0,0-2.635,2.635L28.355,53.436,13.082,63.468a3.76,3.76,0,0,0-1.691,3.32l.861,18.253L.826,99.3a3.761,3.761,0,0,0-.583,3.681L6.7,120.074.243,137.167a3.759,3.759,0,0,0,.583,3.681l11.425,14.261-.861,18.253a3.76,3.76,0,0,0,1.691,3.32l15.273,10.032,4.821,17.626a3.76,3.76,0,0,0,2.635,2.635l17.626,4.821,10.032,15.273a3.772,3.772,0,0,0,3.32,1.691l18.253-.861L99.3,239.322a3.759,3.759,0,0,0,3.681.583l17.093-6.46,17.093,6.46a3.761,3.761,0,0,0,3.68-.583L155.108,227.9l18.253.861a3.764,3.764,0,0,0,3.32-1.691l10.032-15.273,17.626-4.821a3.76,3.76,0,0,0,2.635-2.635l4.821-17.626,15.273-10.032a3.76,3.76,0,0,0,1.691-3.32l-.861-18.253,11.425-14.261a3.761,3.761,0,0,0,.583-3.681Zm-7.537,1.329,6.2,16.416-10.973,13.7a3.759,3.759,0,0,0-.822,2.528l.827,17.529-14.667,9.635a3.76,3.76,0,0,0-1.563,2.151l-4.63,16.927-16.927,4.63a3.762,3.762,0,0,0-2.151,1.563l-9.635,14.667-17.529-.827a3.763,3.763,0,0,0-2.528.822l-13.7,10.973-16.416-6.2a3.764,3.764,0,0,0-2.659,0l-16.416,6.2-13.7-10.973a3.766,3.766,0,0,0-2.528-.822l-17.529.827-9.635-14.667a3.76,3.76,0,0,0-2.151-1.563l-16.927-4.63-4.63-16.927a3.762,3.762,0,0,0-1.563-2.151L19,171.572l.827-17.529a3.758,3.758,0,0,0-.822-2.528l-10.973-13.7,6.2-16.416a3.761,3.761,0,0,0,0-2.659l-6.2-16.416,10.973-13.7a3.759,3.759,0,0,0,.822-2.528L19,68.576,33.67,58.942a3.76,3.76,0,0,0,1.563-2.151l4.63-16.927,16.927-4.63a3.762,3.762,0,0,0,2.151-1.563L68.576,19l17.529.827a3.763,3.763,0,0,0,2.528-.822l13.7-10.973,16.416,6.2a3.761,3.761,0,0,0,2.659,0l16.416-6.2,13.7,10.973a3.757,3.757,0,0,0,2.528.822L171.572,19l9.635,14.667a3.76,3.76,0,0,0,2.151,1.563l16.927,4.63,4.63,16.927a3.763,3.763,0,0,0,1.563,2.151l14.667,9.635-.827,17.529a3.758,3.758,0,0,0,.822,2.528l10.973,13.7-6.2,16.416A3.764,3.764,0,0,0,225.908,121.4Z" transform="translate(0 0)"/>
          </g>
        </g>
        <g id="Group_262" data-name="Group 262" transform="translate(178.527 48.259)">
          <g id="Group_261" data-name="Group 261">
            <path id="Path_460" data-name="Path 460" d="M392.823,109.777c-.936-1.019-1.906-2.032-2.886-3.011s-1.992-1.95-3.011-2.886a3.76,3.76,0,0,0-5.086,5.54c.939.863,1.875,1.759,2.779,2.663s1.8,1.84,2.664,2.78a3.76,3.76,0,0,0,5.54-5.085Z" transform="translate(-380.623 -102.89)"/>
          </g>
        </g>
        <g id="Group_264" data-name="Group 264" transform="translate(23.943 24.02)">
          <g id="Group_263" data-name="Group 263">
            <path id="Path_461" data-name="Path 461" d="M198.581,66.18A96.023,96.023,0,0,0,73.522,208.951a3.76,3.76,0,0,0,5.755-4.841A88.5,88.5,0,0,1,194.54,72.523a3.76,3.76,0,0,0,4.041-6.342Z" transform="translate(-51.047 -51.212)"/>
          </g>
        </g>
        <g id="Group_266" data-name="Group 266" transform="translate(56.879 66.759)">
          <g id="Group_265" data-name="Group 265">
            <path id="Path_462" data-name="Path 462" d="M265.376,144.073a3.76,3.76,0,1,0-6.342,4.04A88.5,88.5,0,0,1,127.447,263.378a3.76,3.76,0,1,0-4.841,5.754,95.638,95.638,0,0,0,61.71,22.474q1.962,0,3.935-.08a96.031,96.031,0,0,0,77.126-147.454Z" transform="translate(-121.266 -142.332)"/>
          </g>
        </g>
      </g>
    </g>
  </g>
</svg>
