<svg xmlns="http://www.w3.org/2000/svg" xmlns:xlink="http://www.w3.org/1999/xlink" width="285" height="285" viewBox="0 0 285 285">
  <defs>
    <clipPath id="clip-Artboard_1">
      <rect width="285" height="285"/>
    </clipPath>
  </defs>
  <g id="Artboard_1" data-name="Artboard – 1" clip-path="url(#clip-Artboard_1)">
    <rect width="285" height="285" fill="#fff"/>
    <g id="Group_299" data-name="Group 299" transform="translate(-671.048 -2475.447)">
      <g id="blob-shape-3" transform="translate(710.137 2508.386)">
        <path id="Path_2" data-name="Path 2" d="M26.592-86.7c0,56.648-56.648,113.3-113.3,113.3S-200-30.056-200-86.7-143.352-200-86.7-200,26.592-143.352,26.592-86.7Z" transform="translate(200 200)" fill="#ededed"/>
      </g>
      <g id="Banana" transform="translate(671 2500)">
        <path id="Path_441" data-name="Path 441" d="M284.775,35.053a3.881,3.881,0,0,0-.673-3.973l-12.71-14.789a3.883,3.883,0,0,0-3.3-1.376,3.954,3.954,0,0,0-3.01,1.894L249.254,43.179a3.782,3.782,0,0,0-.518,2.568c0,.032.061.477.128,1.179l-4.513,4.442a3.888,3.888,0,0,0-1.13,2.354c-.029.184-2.26,18.82-14.253,23.587-14.712,5.867-31.715,18.668-32.189,19.034-.428.275-42.882,26.673-101.881-2.627L60.571,76.7a4.033,4.033,0,0,0-3.818.184l-10.725,6.69a3.95,3.95,0,0,0-1.8,3.85c.2,1.528,5.408,38.071,43.86,59.365,4.555,2.526,9.079,4.708,13.614,6.776a183.219,183.219,0,0,1-34.665-3.781l-50.565-10.6a3.729,3.729,0,0,0-3.636,1.13L1.085,152.654a3.856,3.856,0,0,0-.794,4.155c.779,1.924,19.693,47.206,76.446,61.84q31.212,8.02,58.695,8.037c24.3,0,46.3-4.735,65.8-14.177,30.172-14.575,55.1-42.53,74.063-83.107.275-.58,6.737-14.636-.55-39.292a52.969,52.969,0,0,1,3.742-39.169Zm-15.781-9.563,7.639,8.892-2,5.1H264.2l-.921-4.467ZM91.873,139.944A79.916,79.916,0,0,1,52.46,88.8l6.585-4.125,32.371,16.071c63.125,31.317,107.716,3.391,109.824,2.017.167-.123,16.882-12.71,30.631-18.179,7.341-2.912,11.816-9.1,14.653-15.066-.1.307-.2.614-.31.921a31.913,31.913,0,0,1-1.916,4.145,27.745,27.745,0,0,1-1.418,2.455,23.186,23.186,0,0,1-5.285,5.685c-2.108,1.545-4.226,3.243-6.322,5.027-.622.531-1.221,1.106-1.838,1.651-1.467,1.292-2.931,2.585-4.356,3.931-.663.629-1.28,1.263-1.934,1.9-1.339,1.3-2.678,2.6-3.946,3.9-.565.577-1.061,1.12-1.609,1.693-1.29,1.346-2.568,2.681-3.747,3.963-.425.462-.776.862-1.184,1.314-1.2,1.329-2.371,2.619-3.41,3.8-.243.28-.425.494-.658.764-3.408,3.921-5.781,6.85-6.4,7.634-.025.027-.383.373-.518.511-.258.26-.885.843-1.5,1.423-.43.4-1.076.956-1.641,1.459-.99.865-2.479,2.017-3.882,3.125-1.307,1.039-3,2.241-4.764,3.5-.853.6-1.919,1.253-2.862,1.882C118.4,155.706,60.964,91.571,60.342,90.876a1.257,1.257,0,0,0-1.771-.123,1.273,1.273,0,0,0-.123,1.771c.518.582,41.324,46.319,95.6,46.319a95.528,95.528,0,0,0,23.135-2.889c-.656.359-1.211.7-1.894,1.059-2.088,1.1-4.14,2.194-6.472,3.268a147.275,147.275,0,0,1-16.4,6.194c-1.428.457-2.614,1.012-4.1,1.437a152.522,152.522,0,0,1-26.2,4.968c-.307.032-.673,0-.983.034A174.316,174.316,0,0,1,91.873,139.944Zm179.61-92.456c-.474.826-11.609,19.921-4.263,44.823,6.371,21.57,1.054,33.638.993,33.761-18.194,38.894-41.874,65.628-70.395,79.409-32.447,15.734-72.535,17.6-119.129,5.592-45.845-11.794-65.582-45.891-70.1-54.967l8.4-8.83,48.427,10.145a186.154,186.154,0,0,0,55.179,3.435c.108.007.214.047.322.047a1.358,1.358,0,0,0,.351-.029c.1-.01.174-.042.273-.052,42.2-3.855,68.857-21.928,80.021-31.425.047-.039.155-.108.2-.147.184-.155.246-.228.425-.378,3.147-2.722,5.413-4.889,5.764-5.275a2.891,2.891,0,0,0,.2-.243c.167-.214,17.86-22.427,34.068-34.341a31.313,31.313,0,0,0,8.975-10.548,37.266,37.266,0,0,0,1.555-4.025,47.4,47.4,0,0,0,2.8-8.211,52.817,52.817,0,0,0,.72-5.238c.236-2.115.536-4.061.577-5.914.074-2.513.044-4.2-.061-5.919-.015-.265.007-.717-.01-.963,0-.022-.029-.025-.032-.044-.044-.59-.047-1.668-.091-2.1l4.727-7.872.575,2.8a1.258,1.258,0,0,0,1.221,1.007h10.469Z" transform="translate(-0.001 -14.911)" fill="#020400"/>
        <path id="Path_442" data-name="Path 442" d="M240.132,52.811c-24.869,43.294-57.211,69.785-96.09,78.675a134.175,134.175,0,0,1-30.218,3.329c-56.036,0-103.562-31.928-104.127-32.326a1.192,1.192,0,0,0-1.742.339,1.257,1.257,0,0,0,.337,1.742c.565.366,48.687,32.754,105.564,32.754a136.873,136.873,0,0,0,30.722-3.391c39.614-9.044,72.488-35.931,97.726-79.9a1.247,1.247,0,1,0-2.172-1.224Z" transform="translate(11.277 39.377)" fill="#020400"/>
      </g>
    </g>
  </g>
</svg>
